<?xml version="1.0" encoding="utf-8"?>
<svg version="1.1" xmlns="http://www.w3.org/2000/svg" xmlns:xlink="http://www.w3.org/1999/xlink" viewBox="0 0 1000 866.0254037844386">
<polygon points="492.1875,13.531646934131853 500.0,0 507.8125,13.531646934131853" fill="#0053e0" />
	<polygon points="484.375,27.063293868263706 492.1875,13.531646934131853 500.0,27.063293868263706" fill="#0053e0" />
	<polygon points="500.0,27.063293868263706 507.8125,13.531646934131853 515.625,27.063293868263706" fill="#0053e0" />
	<polygon points="476.5625,40.594940802395556 484.375,27.063293868263706 492.1875,40.594940802395556" fill="#0053e0" />
	<polygon points="468.75,54.12658773652741 476.5625,40.594940802395556 484.375,54.12658773652741" fill="#0053e0" />
	<polygon points="484.375,54.12658773652741 492.1875,40.594940802395556 500.0,54.12658773652741" fill="#0053e0" />
	<polygon points="507.8125,40.594940802395556 515.625,27.063293868263706 523.4375,40.594940802395556" fill="#0053e0" />
	<polygon points="500.0,54.12658773652741 507.8125,40.594940802395556 515.625,54.12658773652741" fill="#0053e0" />
	<polygon points="515.625,54.12658773652741 523.4375,40.594940802395556 531.25,54.12658773652741" fill="#0053e0" />
	<polygon points="460.9375,67.65823467065927 468.75,54.12658773652741 476.5625,67.65823467065927" fill="#0053e0" />
	<polygon points="453.125,81.18988160479113 460.9375,67.65823467065927 468.75,81.18988160479113" fill="#0053e0" />
	<polygon points="468.75,81.18988160479113 476.5625,67.65823467065927 484.375,81.18988160479113" fill="#0053e0" />
	<polygon points="445.3125,94.72152853892297 453.125,81.18988160479111 460.9375,94.72152853892297" fill="#0053e0" />
	<polygon points="437.5,108.25317547305482 445.3125,94.72152853892297 453.125,108.25317547305482" fill="#0053e0" />
	<polygon points="453.125,108.25317547305482 460.9375,94.72152853892297 468.75,108.25317547305482" fill="#0053e0" />
	<polygon points="476.5625,94.72152853892297 484.375,81.18988160479111 492.1875,94.72152853892297" fill="#0053e0" />
	<polygon points="468.75,108.25317547305482 476.5625,94.72152853892297 484.375,108.25317547305482" fill="#0053e0" />
	<polygon points="484.375,108.25317547305482 492.1875,94.72152853892297 500.0,108.25317547305482" fill="#0053e0" />
	<polygon points="523.4375,67.65823467065927 531.25,54.12658773652741 539.0625,67.65823467065927" fill="#0053e0" />
	<polygon points="515.625,81.18988160479113 523.4375,67.65823467065927 531.25,81.18988160479113" fill="#0053e0" />
	<polygon points="531.25,81.18988160479113 539.0625,67.65823467065927 546.875,81.18988160479113" fill="#0053e0" />
	<polygon points="507.8125,94.72152853892297 515.625,81.18988160479111 523.4375,94.72152853892297" fill="#0053e0" />
	<polygon points="500.0,108.25317547305482 507.8125,94.72152853892297 515.625,108.25317547305482" fill="#0053e0" />
	<polygon points="515.625,108.25317547305482 523.4375,94.72152853892297 531.25,108.25317547305482" fill="#0053e0" />
	<polygon points="539.0625,94.72152853892297 546.875,81.18988160479111 554.6875,94.72152853892297" fill="#0053e0" />
	<polygon points="531.25,108.25317547305482 539.0625,94.72152853892297 546.875,108.25317547305482" fill="#0053e0" />
	<polygon points="546.875,108.25317547305482 554.6875,94.72152853892297 562.5,108.25317547305482" fill="#0053e0" />
	<polygon points="429.6875,121.78482240718668 437.5,108.25317547305482 445.3125,121.78482240718668" fill="#0053e0" />
	<polygon points="421.875,135.31646934131854 429.6875,121.78482240718668 437.5,135.31646934131854" fill="#0053e0" />
	<polygon points="437.5,135.31646934131854 445.3125,121.78482240718668 453.125,135.31646934131854" fill="#0053e0" />
	<polygon points="414.0625,148.8481162754504 421.875,135.31646934131854 429.6875,148.8481162754504" fill="#0053e0" />
	<polygon points="406.25,162.37976320958225 414.0625,148.8481162754504 421.875,162.37976320958225" fill="#0053e0" />
	<polygon points="421.875,162.37976320958225 429.6875,148.8481162754504 437.5,162.37976320958225" fill="#0053e0" />
	<polygon points="445.3125,148.8481162754504 453.125,135.31646934131854 460.9375,148.8481162754504" fill="#0053e0" />
	<polygon points="437.5,162.37976320958225 445.3125,148.8481162754504 453.125,162.37976320958225" fill="#0053e0" />
	<polygon points="453.125,162.37976320958225 460.9375,148.8481162754504 468.75,162.37976320958225" fill="#0053e0" />
	<polygon points="398.4375,175.91141014371408 406.25,162.37976320958222 414.0625,175.91141014371408" fill="#0053e0" />
	<polygon points="390.625,189.44305707784594 398.4375,175.91141014371408 406.25,189.44305707784594" fill="#0053e0" />
	<polygon points="406.25,189.44305707784594 414.0625,175.91141014371408 421.875,189.44305707784594" fill="#0053e0" />
	<polygon points="382.8125,202.9747040119778 390.625,189.44305707784594 398.4375,202.9747040119778" fill="#0053e0" />
	<polygon points="375.0,216.50635094610965 382.8125,202.9747040119778 390.625,216.50635094610965" fill="#0053e0" />
	<polygon points="390.625,216.50635094610965 398.4375,202.9747040119778 406.25,216.50635094610965" fill="#0053e0" />
	<polygon points="414.0625,202.9747040119778 421.875,189.44305707784594 429.6875,202.9747040119778" fill="#0053e0" />
	<polygon points="406.25,216.50635094610965 414.0625,202.9747040119778 421.875,216.50635094610965" fill="#0053e0" />
	<polygon points="421.875,216.50635094610965 429.6875,202.9747040119778 437.5,216.50635094610965" fill="#0053e0" />
	<polygon points="460.9375,175.91141014371408 468.75,162.37976320958222 476.5625,175.91141014371408" fill="#0053e0" />
	<polygon points="453.125,189.44305707784594 460.9375,175.91141014371408 468.75,189.44305707784594" fill="#0053e0" />
	<polygon points="468.75,189.44305707784594 476.5625,175.91141014371408 484.375,189.44305707784594" fill="#0053e0" />
	<polygon points="445.3125,202.9747040119778 453.125,189.44305707784594 460.9375,202.9747040119778" fill="#0053e0" />
	<polygon points="437.5,216.50635094610965 445.3125,202.9747040119778 453.125,216.50635094610965" fill="#0053e0" />
	<polygon points="453.125,216.50635094610965 460.9375,202.9747040119778 468.75,216.50635094610965" fill="#0053e0" />
	<polygon points="476.5625,202.9747040119778 484.375,189.44305707784594 492.1875,202.9747040119778" fill="#0053e0" />
	<polygon points="468.75,216.50635094610965 476.5625,202.9747040119778 484.375,216.50635094610965" fill="#0053e0" />
	<polygon points="484.375,216.50635094610965 492.1875,202.9747040119778 500.0,216.50635094610965" fill="#0053e0" />
	<polygon points="554.6875,121.78482240718668 562.5,108.25317547305482 570.3125,121.78482240718668" fill="#0053e0" />
	<polygon points="546.875,135.31646934131854 554.6875,121.78482240718668 562.5,135.31646934131854" fill="#0053e0" />
	<polygon points="562.5,135.31646934131854 570.3125,121.78482240718668 578.125,135.31646934131854" fill="#0053e0" />
	<polygon points="539.0625,148.8481162754504 546.875,135.31646934131854 554.6875,148.8481162754504" fill="#0053e0" />
	<polygon points="531.25,162.37976320958225 539.0625,148.8481162754504 546.875,162.37976320958225" fill="#0053e0" />
	<polygon points="546.875,162.37976320958225 554.6875,148.8481162754504 562.5,162.37976320958225" fill="#0053e0" />
	<polygon points="570.3125,148.8481162754504 578.125,135.31646934131854 585.9375,148.8481162754504" fill="#0053e0" />
	<polygon points="562.5,162.37976320958225 570.3125,148.8481162754504 578.125,162.37976320958225" fill="#0053e0" />
	<polygon points="578.125,162.37976320958225 585.9375,148.8481162754504 593.75,162.37976320958225" fill="#0053e0" />
	<polygon points="523.4375,175.91141014371408 531.25,162.37976320958222 539.0625,175.91141014371408" fill="#0053e0" />
	<polygon points="515.625,189.44305707784594 523.4375,175.91141014371408 531.25,189.44305707784594" fill="#0053e0" />
	<polygon points="531.25,189.44305707784594 539.0625,175.91141014371408 546.875,189.44305707784594" fill="#0053e0" />
	<polygon points="507.8125,202.9747040119778 515.625,189.44305707784594 523.4375,202.9747040119778" fill="#0053e0" />
	<polygon points="500.0,216.50635094610965 507.8125,202.9747040119778 515.625,216.50635094610965" fill="#0053e0" />
	<polygon points="515.625,216.50635094610965 523.4375,202.9747040119778 531.25,216.50635094610965" fill="#0053e0" />
	<polygon points="539.0625,202.9747040119778 546.875,189.44305707784594 554.6875,202.9747040119778" fill="#0053e0" />
	<polygon points="531.25,216.50635094610965 539.0625,202.9747040119778 546.875,216.50635094610965" fill="#0053e0" />
	<polygon points="546.875,216.50635094610965 554.6875,202.9747040119778 562.5,216.50635094610965" fill="#0053e0" />
	<polygon points="585.9375,175.91141014371408 593.75,162.37976320958222 601.5625,175.91141014371408" fill="#0053e0" />
	<polygon points="578.125,189.44305707784594 585.9375,175.91141014371408 593.75,189.44305707784594" fill="#0053e0" />
	<polygon points="593.75,189.44305707784594 601.5625,175.91141014371408 609.375,189.44305707784594" fill="#0053e0" />
	<polygon points="570.3125,202.9747040119778 578.125,189.44305707784594 585.9375,202.9747040119778" fill="#0053e0" />
	<polygon points="562.5,216.50635094610965 570.3125,202.9747040119778 578.125,216.50635094610965" fill="#0053e0" />
	<polygon points="578.125,216.50635094610965 585.9375,202.9747040119778 593.75,216.50635094610965" fill="#0053e0" />
	<polygon points="601.5625,202.9747040119778 609.375,189.44305707784594 617.1875,202.9747040119778" fill="#0053e0" />
	<polygon points="593.75,216.50635094610965 601.5625,202.9747040119778 609.375,216.50635094610965" fill="#0053e0" />
	<polygon points="609.375,216.50635094610965 617.1875,202.9747040119778 625.0,216.50635094610965" fill="#0053e0" />
	<polygon points="367.1875,230.0379978802415 375.0,216.50635094610965 382.8125,230.0379978802415" fill="#0053e0" />
	<polygon points="359.375,243.56964481437336 367.1875,230.0379978802415 375.0,243.56964481437336" fill="#0053e0" />
	<polygon points="375.0,243.56964481437336 382.8125,230.0379978802415 390.625,243.56964481437336" fill="#0053e0" />
	<polygon points="351.5625,257.1012917485052 359.375,243.56964481437336 367.1875,257.1012917485052" fill="#0053e0" />
	<polygon points="343.75,270.6329386826371 351.5625,257.1012917485052 359.375,270.6329386826371" fill="#0053e0" />
	<polygon points="359.375,270.6329386826371 367.1875,257.1012917485052 375.0,270.6329386826371" fill="#0053e0" />
	<polygon points="382.8125,257.1012917485052 390.625,243.56964481437336 398.4375,257.1012917485052" fill="#0053e0" />
	<polygon points="375.0,270.6329386826371 382.8125,257.1012917485052 390.625,270.6329386826371" fill="#0053e0" />
	<polygon points="390.625,270.6329386826371 398.4375,257.1012917485052 406.25,270.6329386826371" fill="#0053e0" />
	<polygon points="335.9375,284.16458561676893 343.75,270.6329386826371 351.5625,284.16458561676893" fill="#0053e0" />
	<polygon points="328.125,297.6962325509008 335.9375,284.16458561676893 343.75,297.6962325509008" fill="#0053e0" />
	<polygon points="343.75,297.6962325509008 351.5625,284.16458561676893 359.375,297.6962325509008" fill="#0053e0" />
	<polygon points="320.3125,311.22787948503264 328.125,297.6962325509008 335.9375,311.22787948503264" fill="#0053e0" />
	<polygon points="312.5,324.7595264191645 320.3125,311.22787948503264 328.125,324.7595264191645" fill="#0053e0" />
	<polygon points="328.125,324.7595264191645 335.9375,311.22787948503264 343.75,324.7595264191645" fill="#0053e0" />
	<polygon points="351.5625,311.22787948503264 359.375,297.6962325509008 367.1875,311.22787948503264" fill="#0053e0" />
	<polygon points="343.75,324.7595264191645 351.5625,311.22787948503264 359.375,324.7595264191645" fill="#0053e0" />
	<polygon points="359.375,324.7595264191645 367.1875,311.22787948503264 375.0,324.7595264191645" fill="#0053e0" />
	<polygon points="398.4375,284.16458561676893 406.25,270.6329386826371 414.0625,284.16458561676893" fill="#0053e0" />
	<polygon points="390.625,297.6962325509008 398.4375,284.16458561676893 406.25,297.6962325509008" fill="#0053e0" />
	<polygon points="406.25,297.6962325509008 414.0625,284.16458561676893 421.875,297.6962325509008" fill="#0053e0" />
	<polygon points="382.8125,311.22787948503264 390.625,297.6962325509008 398.4375,311.22787948503264" fill="#0053e0" />
	<polygon points="375.0,324.7595264191645 382.8125,311.22787948503264 390.625,324.7595264191645" fill="#0053e0" />
	<polygon points="390.625,324.7595264191645 398.4375,311.22787948503264 406.25,324.7595264191645" fill="#0053e0" />
	<polygon points="414.0625,311.22787948503264 421.875,297.6962325509008 429.6875,311.22787948503264" fill="#0053e0" />
	<polygon points="406.25,324.7595264191645 414.0625,311.22787948503264 421.875,324.7595264191645" fill="#0053e0" />
	<polygon points="421.875,324.7595264191645 429.6875,311.22787948503264 437.5,324.7595264191645" fill="#0053e0" />
	<polygon points="304.6875,338.2911733532963 312.5,324.75952641916444 320.3125,338.2911733532963" fill="#0053e0" />
	<polygon points="296.875,351.82282028742816 304.6875,338.2911733532963 312.5,351.82282028742816" fill="#0053e0" />
	<polygon points="312.5,351.82282028742816 320.3125,338.2911733532963 328.125,351.82282028742816" fill="#0053e0" />
	<polygon points="289.0625,365.35446722156 296.875,351.82282028742816 304.6875,365.35446722156" fill="#0053e0" />
	<polygon points="281.25,378.88611415569187 289.0625,365.35446722156 296.875,378.88611415569187" fill="#0053e0" />
	<polygon points="296.875,378.88611415569187 304.6875,365.35446722156 312.5,378.88611415569187" fill="#0053e0" />
	<polygon points="320.3125,365.35446722156 328.125,351.82282028742816 335.9375,365.35446722156" fill="#0053e0" />
	<polygon points="312.5,378.88611415569187 320.3125,365.35446722156 328.125,378.88611415569187" fill="#0053e0" />
	<polygon points="328.125,378.88611415569187 335.9375,365.35446722156 343.75,378.88611415569187" fill="#0053e0" />
	<polygon points="273.4375,392.4177610898237 281.25,378.88611415569187 289.0625,392.4177610898237" fill="#0053e0" />
	<polygon points="265.625,405.9494080239556 273.4375,392.4177610898237 281.25,405.9494080239556" fill="#0053e0" />
	<polygon points="281.25,405.9494080239556 289.0625,392.4177610898237 296.875,405.9494080239556" fill="#0053e0" />
	<polygon points="257.8125,419.48105495808744 265.625,405.9494080239556 273.4375,419.48105495808744" fill="#0053e0" />
	<polygon points="250.0,433.0127018922193 257.8125,419.48105495808744 265.625,433.0127018922193" fill="#0053e0" />
	<polygon points="265.625,433.0127018922193 273.4375,419.48105495808744 281.25,433.0127018922193" fill="#0053e0" />
	<polygon points="289.0625,419.48105495808744 296.875,405.9494080239556 304.6875,419.48105495808744" fill="#0053e0" />
	<polygon points="281.25,433.0127018922193 289.0625,419.48105495808744 296.875,433.0127018922193" fill="#0053e0" />
	<polygon points="296.875,433.0127018922193 304.6875,419.48105495808744 312.5,433.0127018922193" fill="#0053e0" />
	<polygon points="335.9375,392.4177610898237 343.75,378.88611415569187 351.5625,392.4177610898237" fill="#0053e0" />
	<polygon points="328.125,405.9494080239556 335.9375,392.4177610898237 343.75,405.9494080239556" fill="#0053e0" />
	<polygon points="343.75,405.9494080239556 351.5625,392.4177610898237 359.375,405.9494080239556" fill="#0053e0" />
	<polygon points="320.3125,419.48105495808744 328.125,405.9494080239556 335.9375,419.48105495808744" fill="#0053e0" />
	<polygon points="312.5,433.0127018922193 320.3125,419.48105495808744 328.125,433.0127018922193" fill="#0053e0" />
	<polygon points="328.125,433.0127018922193 335.9375,419.48105495808744 343.75,433.0127018922193" fill="#0053e0" />
	<polygon points="351.5625,419.48105495808744 359.375,405.9494080239556 367.1875,419.48105495808744" fill="#0053e0" />
	<polygon points="343.75,433.0127018922193 351.5625,419.48105495808744 359.375,433.0127018922193" fill="#0053e0" />
	<polygon points="359.375,433.0127018922193 367.1875,419.48105495808744 375.0,433.0127018922193" fill="#0053e0" />
	<polygon points="429.6875,338.2911733532963 437.5,324.75952641916444 445.3125,338.2911733532963" fill="#0053e0" />
	<polygon points="421.875,351.82282028742816 429.6875,338.2911733532963 437.5,351.82282028742816" fill="#0053e0" />
	<polygon points="437.5,351.82282028742816 445.3125,338.2911733532963 453.125,351.82282028742816" fill="#0053e0" />
	<polygon points="414.0625,365.35446722156 421.875,351.82282028742816 429.6875,365.35446722156" fill="#0053e0" />
	<polygon points="406.25,378.88611415569187 414.0625,365.35446722156 421.875,378.88611415569187" fill="#0053e0" />
	<polygon points="421.875,378.88611415569187 429.6875,365.35446722156 437.5,378.88611415569187" fill="#0053e0" />
	<polygon points="445.3125,365.35446722156 453.125,351.82282028742816 460.9375,365.35446722156" fill="#0053e0" />
	<polygon points="437.5,378.88611415569187 445.3125,365.35446722156 453.125,378.88611415569187" fill="#0053e0" />
	<polygon points="453.125,378.88611415569187 460.9375,365.35446722156 468.75,378.88611415569187" fill="#0053e0" />
	<polygon points="398.4375,392.4177610898237 406.25,378.88611415569187 414.0625,392.4177610898237" fill="#0053e0" />
	<polygon points="390.625,405.9494080239556 398.4375,392.4177610898237 406.25,405.9494080239556" fill="#0053e0" />
	<polygon points="406.25,405.9494080239556 414.0625,392.4177610898237 421.875,405.9494080239556" fill="#0053e0" />
	<polygon points="382.8125,419.48105495808744 390.625,405.9494080239556 398.4375,419.48105495808744" fill="#0053e0" />
	<polygon points="375.0,433.0127018922193 382.8125,419.48105495808744 390.625,433.0127018922193" fill="#0053e0" />
	<polygon points="390.625,433.0127018922193 398.4375,419.48105495808744 406.25,433.0127018922193" fill="#0053e0" />
	<polygon points="414.0625,419.48105495808744 421.875,405.9494080239556 429.6875,419.48105495808744" fill="#0053e0" />
	<polygon points="406.25,433.0127018922193 414.0625,419.48105495808744 421.875,433.0127018922193" fill="#0053e0" />
	<polygon points="421.875,433.0127018922193 429.6875,419.48105495808744 437.5,433.0127018922193" fill="#0053e0" />
	<polygon points="460.9375,392.4177610898237 468.75,378.88611415569187 476.5625,392.4177610898237" fill="#0053e0" />
	<polygon points="453.125,405.9494080239556 460.9375,392.4177610898237 468.75,405.9494080239556" fill="#0053e0" />
	<polygon points="468.75,405.9494080239556 476.5625,392.4177610898237 484.375,405.9494080239556" fill="#0053e0" />
	<polygon points="445.3125,419.48105495808744 453.125,405.9494080239556 460.9375,419.48105495808744" fill="#0053e0" />
	<polygon points="437.5,433.0127018922193 445.3125,419.48105495808744 453.125,433.0127018922193" fill="#0053e0" />
	<polygon points="453.125,433.0127018922193 460.9375,419.48105495808744 468.75,433.0127018922193" fill="#0053e0" />
	<polygon points="476.5625,419.48105495808744 484.375,405.9494080239556 492.1875,419.48105495808744" fill="#0053e0" />
	<polygon points="468.75,433.0127018922193 476.5625,419.48105495808744 484.375,433.0127018922193" fill="#0053e0" />
	<polygon points="484.375,433.0127018922193 492.1875,419.48105495808744 500.0,433.0127018922193" fill="#0053e0" />
	<polygon points="617.1875,230.0379978802415 625.0,216.50635094610965 632.8125,230.0379978802415" fill="#0053e0" />
	<polygon points="609.375,243.56964481437336 617.1875,230.0379978802415 625.0,243.56964481437336" fill="#0053e0" />
	<polygon points="625.0,243.56964481437336 632.8125,230.0379978802415 640.625,243.56964481437336" fill="#0053e0" />
	<polygon points="601.5625,257.1012917485052 609.375,243.56964481437336 617.1875,257.1012917485052" fill="#0053e0" />
	<polygon points="593.75,270.6329386826371 601.5625,257.1012917485052 609.375,270.6329386826371" fill="#0053e0" />
	<polygon points="609.375,270.6329386826371 617.1875,257.1012917485052 625.0,270.6329386826371" fill="#0053e0" />
	<polygon points="632.8125,257.1012917485052 640.625,243.56964481437336 648.4375,257.1012917485052" fill="#0053e0" />
	<polygon points="625.0,270.6329386826371 632.8125,257.1012917485052 640.625,270.6329386826371" fill="#0053e0" />
	<polygon points="640.625,270.6329386826371 648.4375,257.1012917485052 656.25,270.6329386826371" fill="#0053e0" />
	<polygon points="585.9375,284.16458561676893 593.75,270.6329386826371 601.5625,284.16458561676893" fill="#0053e0" />
	<polygon points="578.125,297.6962325509008 585.9375,284.16458561676893 593.75,297.6962325509008" fill="#0053e0" />
	<polygon points="593.75,297.6962325509008 601.5625,284.16458561676893 609.375,297.6962325509008" fill="#0053e0" />
	<polygon points="570.3125,311.22787948503264 578.125,297.6962325509008 585.9375,311.22787948503264" fill="#0053e0" />
	<polygon points="562.5,324.7595264191645 570.3125,311.22787948503264 578.125,324.7595264191645" fill="#0053e0" />
	<polygon points="578.125,324.7595264191645 585.9375,311.22787948503264 593.75,324.7595264191645" fill="#0053e0" />
	<polygon points="601.5625,311.22787948503264 609.375,297.6962325509008 617.1875,311.22787948503264" fill="#0053e0" />
	<polygon points="593.75,324.7595264191645 601.5625,311.22787948503264 609.375,324.7595264191645" fill="#0053e0" />
	<polygon points="609.375,324.7595264191645 617.1875,311.22787948503264 625.0,324.7595264191645" fill="#0053e0" />
	<polygon points="648.4375,284.16458561676893 656.25,270.6329386826371 664.0625,284.16458561676893" fill="#0053e0" />
	<polygon points="640.625,297.6962325509008 648.4375,284.16458561676893 656.25,297.6962325509008" fill="#0053e0" />
	<polygon points="656.25,297.6962325509008 664.0625,284.16458561676893 671.875,297.6962325509008" fill="#0053e0" />
	<polygon points="632.8125,311.22787948503264 640.625,297.6962325509008 648.4375,311.22787948503264" fill="#0053e0" />
	<polygon points="625.0,324.7595264191645 632.8125,311.22787948503264 640.625,324.7595264191645" fill="#0053e0" />
	<polygon points="640.625,324.7595264191645 648.4375,311.22787948503264 656.25,324.7595264191645" fill="#0053e0" />
	<polygon points="664.0625,311.22787948503264 671.875,297.6962325509008 679.6875,311.22787948503264" fill="#0053e0" />
	<polygon points="656.25,324.7595264191645 664.0625,311.22787948503264 671.875,324.7595264191645" fill="#0053e0" />
	<polygon points="671.875,324.7595264191645 679.6875,311.22787948503264 687.5,324.7595264191645" fill="#0053e0" />
	<polygon points="554.6875,338.2911733532963 562.5,324.75952641916444 570.3125,338.2911733532963" fill="#0053e0" />
	<polygon points="546.875,351.82282028742816 554.6875,338.2911733532963 562.5,351.82282028742816" fill="#0053e0" />
	<polygon points="562.5,351.82282028742816 570.3125,338.2911733532963 578.125,351.82282028742816" fill="#0053e0" />
	<polygon points="539.0625,365.35446722156 546.875,351.82282028742816 554.6875,365.35446722156" fill="#0053e0" />
	<polygon points="531.25,378.88611415569187 539.0625,365.35446722156 546.875,378.88611415569187" fill="#0053e0" />
	<polygon points="546.875,378.88611415569187 554.6875,365.35446722156 562.5,378.88611415569187" fill="#0053e0" />
	<polygon points="570.3125,365.35446722156 578.125,351.82282028742816 585.9375,365.35446722156" fill="#0053e0" />
	<polygon points="562.5,378.88611415569187 570.3125,365.35446722156 578.125,378.88611415569187" fill="#0053e0" />
	<polygon points="578.125,378.88611415569187 585.9375,365.35446722156 593.75,378.88611415569187" fill="#0053e0" />
	<polygon points="523.4375,392.4177610898237 531.25,378.88611415569187 539.0625,392.4177610898237" fill="#0053e0" />
	<polygon points="515.625,405.9494080239556 523.4375,392.4177610898237 531.25,405.9494080239556" fill="#0053e0" />
	<polygon points="531.25,405.9494080239556 539.0625,392.4177610898237 546.875,405.9494080239556" fill="#0053e0" />
	<polygon points="507.8125,419.48105495808744 515.625,405.9494080239556 523.4375,419.48105495808744" fill="#0053e0" />
	<polygon points="500.0,433.0127018922193 507.8125,419.48105495808744 515.625,433.0127018922193" fill="#0053e0" />
	<polygon points="515.625,433.0127018922193 523.4375,419.48105495808744 531.25,433.0127018922193" fill="#0053e0" />
	<polygon points="539.0625,419.48105495808744 546.875,405.9494080239556 554.6875,419.48105495808744" fill="#0053e0" />
	<polygon points="531.25,433.0127018922193 539.0625,419.48105495808744 546.875,433.0127018922193" fill="#0053e0" />
	<polygon points="546.875,433.0127018922193 554.6875,419.48105495808744 562.5,433.0127018922193" fill="#0053e0" />
	<polygon points="585.9375,392.4177610898237 593.75,378.88611415569187 601.5625,392.4177610898237" fill="#0053e0" />
	<polygon points="578.125,405.9494080239556 585.9375,392.4177610898237 593.75,405.9494080239556" fill="#0053e0" />
	<polygon points="593.75,405.9494080239556 601.5625,392.4177610898237 609.375,405.9494080239556" fill="#0053e0" />
	<polygon points="570.3125,419.48105495808744 578.125,405.9494080239556 585.9375,419.48105495808744" fill="#0053e0" />
	<polygon points="562.5,433.0127018922193 570.3125,419.48105495808744 578.125,433.0127018922193" fill="#0053e0" />
	<polygon points="578.125,433.0127018922193 585.9375,419.48105495808744 593.75,433.0127018922193" fill="#0053e0" />
	<polygon points="601.5625,419.48105495808744 609.375,405.9494080239556 617.1875,419.48105495808744" fill="#0053e0" />
	<polygon points="593.75,433.0127018922193 601.5625,419.48105495808744 609.375,433.0127018922193" fill="#0053e0" />
	<polygon points="609.375,433.0127018922193 617.1875,419.48105495808744 625.0,433.0127018922193" fill="#0053e0" />
	<polygon points="679.6875,338.2911733532963 687.5,324.75952641916444 695.3125,338.2911733532963" fill="#0053e0" />
	<polygon points="671.875,351.82282028742816 679.6875,338.2911733532963 687.5,351.82282028742816" fill="#0053e0" />
	<polygon points="687.5,351.82282028742816 695.3125,338.2911733532963 703.125,351.82282028742816" fill="#0053e0" />
	<polygon points="664.0625,365.35446722156 671.875,351.82282028742816 679.6875,365.35446722156" fill="#0053e0" />
	<polygon points="656.25,378.88611415569187 664.0625,365.35446722156 671.875,378.88611415569187" fill="#0053e0" />
	<polygon points="671.875,378.88611415569187 679.6875,365.35446722156 687.5,378.88611415569187" fill="#0053e0" />
	<polygon points="695.3125,365.35446722156 703.125,351.82282028742816 710.9375,365.35446722156" fill="#0053e0" />
	<polygon points="687.5,378.88611415569187 695.3125,365.35446722156 703.125,378.88611415569187" fill="#0053e0" />
	<polygon points="703.125,378.88611415569187 710.9375,365.35446722156 718.75,378.88611415569187" fill="#0053e0" />
	<polygon points="648.4375,392.4177610898237 656.25,378.88611415569187 664.0625,392.4177610898237" fill="#0053e0" />
	<polygon points="640.625,405.9494080239556 648.4375,392.4177610898237 656.25,405.9494080239556" fill="#0053e0" />
	<polygon points="656.25,405.9494080239556 664.0625,392.4177610898237 671.875,405.9494080239556" fill="#0053e0" />
	<polygon points="632.8125,419.48105495808744 640.625,405.9494080239556 648.4375,419.48105495808744" fill="#0053e0" />
	<polygon points="625.0,433.0127018922193 632.8125,419.48105495808744 640.625,433.0127018922193" fill="#0053e0" />
	<polygon points="640.625,433.0127018922193 648.4375,419.48105495808744 656.25,433.0127018922193" fill="#0053e0" />
	<polygon points="664.0625,419.48105495808744 671.875,405.9494080239556 679.6875,419.48105495808744" fill="#0053e0" />
	<polygon points="656.25,433.0127018922193 664.0625,419.48105495808744 671.875,433.0127018922193" fill="#0053e0" />
	<polygon points="671.875,433.0127018922193 679.6875,419.48105495808744 687.5,433.0127018922193" fill="#0053e0" />
	<polygon points="710.9375,392.4177610898237 718.75,378.88611415569187 726.5625,392.4177610898237" fill="#0053e0" />
	<polygon points="703.125,405.9494080239556 710.9375,392.4177610898237 718.75,405.9494080239556" fill="#0053e0" />
	<polygon points="718.75,405.9494080239556 726.5625,392.4177610898237 734.375,405.9494080239556" fill="#0053e0" />
	<polygon points="695.3125,419.48105495808744 703.125,405.9494080239556 710.9375,419.48105495808744" fill="#0053e0" />
	<polygon points="687.5,433.0127018922193 695.3125,419.48105495808744 703.125,433.0127018922193" fill="#0053e0" />
	<polygon points="703.125,433.0127018922193 710.9375,419.48105495808744 718.75,433.0127018922193" fill="#0053e0" />
	<polygon points="726.5625,419.48105495808744 734.375,405.9494080239556 742.1875,419.48105495808744" fill="#0053e0" />
	<polygon points="718.75,433.0127018922193 726.5625,419.48105495808744 734.375,433.0127018922193" fill="#0053e0" />
	<polygon points="734.375,433.0127018922193 742.1875,419.48105495808744 750.0,433.0127018922193" fill="#0053e0" />
	<polygon points="242.1875,446.54434882635115 250.0,433.0127018922193 257.8125,446.54434882635115" fill="#0053e0" />
	<polygon points="234.375,460.075995760483 242.1875,446.54434882635115 250.0,460.075995760483" fill="#0053e0" />
	<polygon points="250.0,460.075995760483 257.8125,446.54434882635115 265.625,460.075995760483" fill="#0053e0" />
	<polygon points="226.5625,473.60764269461487 234.375,460.075995760483 242.1875,473.60764269461487" fill="#0053e0" />
	<polygon points="218.75,487.1392896287467 226.5625,473.60764269461487 234.375,487.1392896287467" fill="#0053e0" />
	<polygon points="234.375,487.1392896287467 242.1875,473.60764269461487 250.0,487.1392896287467" fill="#0053e0" />
	<polygon points="257.8125,473.60764269461487 265.625,460.075995760483 273.4375,473.60764269461487" fill="#0053e0" />
	<polygon points="250.0,487.1392896287467 257.8125,473.60764269461487 265.625,487.1392896287467" fill="#0053e0" />
	<polygon points="265.625,487.1392896287467 273.4375,473.60764269461487 281.25,487.1392896287467" fill="#0053e0" />
	<polygon points="210.9375,500.6709365628786 218.75,487.1392896287467 226.5625,500.6709365628786" fill="#0053e0" />
	<polygon points="203.125,514.2025834970104 210.9375,500.6709365628786 218.75,514.2025834970104" fill="#0053e0" />
	<polygon points="218.75,514.2025834970104 226.5625,500.6709365628786 234.375,514.2025834970104" fill="#0053e0" />
	<polygon points="195.3125,527.7342304311422 203.125,514.2025834970104 210.9375,527.7342304311422" fill="#0053e0" />
	<polygon points="187.5,541.265877365274 195.3125,527.7342304311422 203.125,541.265877365274" fill="#0053e0" />
	<polygon points="203.125,541.265877365274 210.9375,527.7342304311422 218.75,541.265877365274" fill="#0053e0" />
	<polygon points="226.5625,527.7342304311422 234.375,514.2025834970104 242.1875,527.7342304311422" fill="#0053e0" />
	<polygon points="218.75,541.265877365274 226.5625,527.7342304311422 234.375,541.265877365274" fill="#0053e0" />
	<polygon points="234.375,541.265877365274 242.1875,527.7342304311422 250.0,541.265877365274" fill="#0053e0" />
	<polygon points="273.4375,500.6709365628786 281.25,487.1392896287467 289.0625,500.6709365628786" fill="#0053e0" />
	<polygon points="265.625,514.2025834970104 273.4375,500.6709365628786 281.25,514.2025834970104" fill="#0053e0" />
	<polygon points="281.25,514.2025834970104 289.0625,500.6709365628786 296.875,514.2025834970104" fill="#0053e0" />
	<polygon points="257.8125,527.7342304311422 265.625,514.2025834970104 273.4375,527.7342304311422" fill="#0053e0" />
	<polygon points="250.0,541.265877365274 257.8125,527.7342304311422 265.625,541.265877365274" fill="#0053e0" />
	<polygon points="265.625,541.265877365274 273.4375,527.7342304311422 281.25,541.265877365274" fill="#0053e0" />
	<polygon points="289.0625,527.7342304311422 296.875,514.2025834970104 304.6875,527.7342304311422" fill="#0053e0" />
	<polygon points="281.25,541.265877365274 289.0625,527.7342304311422 296.875,541.265877365274" fill="#0053e0" />
	<polygon points="296.875,541.265877365274 304.6875,527.7342304311422 312.5,541.265877365274" fill="#0053e0" />
	<polygon points="179.6875,554.797524299406 187.5,541.2658773652742 195.3125,554.797524299406" fill="#0053e0" />
	<polygon points="171.875,568.3291712335377 179.6875,554.797524299406 187.5,568.3291712335377" fill="#0053e0" />
	<polygon points="187.5,568.3291712335377 195.3125,554.797524299406 203.125,568.3291712335377" fill="#0053e0" />
	<polygon points="164.0625,581.8608181676697 171.875,568.3291712335379 179.6875,581.8608181676697" fill="#0053e0" />
	<polygon points="156.25,595.3924651018015 164.0625,581.8608181676697 171.875,595.3924651018015" fill="#0053e0" />
	<polygon points="171.875,595.3924651018015 179.6875,581.8608181676697 187.5,595.3924651018015" fill="#0053e0" />
	<polygon points="195.3125,581.8608181676697 203.125,568.3291712335379 210.9375,581.8608181676697" fill="#0053e0" />
	<polygon points="187.5,595.3924651018015 195.3125,581.8608181676697 203.125,595.3924651018015" fill="#0053e0" />
	<polygon points="203.125,595.3924651018015 210.9375,581.8608181676697 218.75,595.3924651018015" fill="#0053e0" />
	<polygon points="148.4375,608.9241120359334 156.25,595.3924651018016 164.0625,608.9241120359334" fill="#0053e0" />
	<polygon points="140.625,622.4557589700652 148.4375,608.9241120359334 156.25,622.4557589700652" fill="#0053e0" />
	<polygon points="156.25,622.4557589700652 164.0625,608.9241120359334 171.875,622.4557589700652" fill="#0053e0" />
	<polygon points="132.8125,635.9874059041971 140.625,622.4557589700653 148.4375,635.9874059041971" fill="#0053e0" />
	<polygon points="125.0,649.5190528383289 132.8125,635.9874059041971 140.625,649.5190528383289" fill="#0053e0" />
	<polygon points="140.625,649.5190528383289 148.4375,635.9874059041971 156.25,649.5190528383289" fill="#0053e0" />
	<polygon points="164.0625,635.9874059041971 171.875,622.4557589700653 179.6875,635.9874059041971" fill="#0053e0" />
	<polygon points="156.25,649.5190528383289 164.0625,635.9874059041971 171.875,649.5190528383289" fill="#0053e0" />
	<polygon points="171.875,649.5190528383289 179.6875,635.9874059041971 187.5,649.5190528383289" fill="#0053e0" />
	<polygon points="210.9375,608.9241120359334 218.75,595.3924651018016 226.5625,608.9241120359334" fill="#0053e0" />
	<polygon points="203.125,622.4557589700652 210.9375,608.9241120359334 218.75,622.4557589700652" fill="#0053e0" />
	<polygon points="218.75,622.4557589700652 226.5625,608.9241120359334 234.375,622.4557589700652" fill="#0053e0" />
	<polygon points="195.3125,635.9874059041971 203.125,622.4557589700653 210.9375,635.9874059041971" fill="#0053e0" />
	<polygon points="187.5,649.5190528383289 195.3125,635.9874059041971 203.125,649.5190528383289" fill="#0053e0" />
	<polygon points="203.125,649.5190528383289 210.9375,635.9874059041971 218.75,649.5190528383289" fill="#0053e0" />
	<polygon points="226.5625,635.9874059041971 234.375,622.4557589700653 242.1875,635.9874059041971" fill="#0053e0" />
	<polygon points="218.75,649.5190528383289 226.5625,635.9874059041971 234.375,649.5190528383289" fill="#0053e0" />
	<polygon points="234.375,649.5190528383289 242.1875,635.9874059041971 250.0,649.5190528383289" fill="#0053e0" />
	<polygon points="304.6875,554.797524299406 312.5,541.2658773652742 320.3125,554.797524299406" fill="#0053e0" />
	<polygon points="296.875,568.3291712335377 304.6875,554.797524299406 312.5,568.3291712335377" fill="#0053e0" />
	<polygon points="312.5,568.3291712335377 320.3125,554.797524299406 328.125,568.3291712335377" fill="#0053e0" />
	<polygon points="289.0625,581.8608181676697 296.875,568.3291712335379 304.6875,581.8608181676697" fill="#0053e0" />
	<polygon points="281.25,595.3924651018015 289.0625,581.8608181676697 296.875,595.3924651018015" fill="#0053e0" />
	<polygon points="296.875,595.3924651018015 304.6875,581.8608181676697 312.5,595.3924651018015" fill="#0053e0" />
	<polygon points="320.3125,581.8608181676697 328.125,568.3291712335379 335.9375,581.8608181676697" fill="#0053e0" />
	<polygon points="312.5,595.3924651018015 320.3125,581.8608181676697 328.125,595.3924651018015" fill="#0053e0" />
	<polygon points="328.125,595.3924651018015 335.9375,581.8608181676697 343.75,595.3924651018015" fill="#0053e0" />
	<polygon points="273.4375,608.9241120359334 281.25,595.3924651018016 289.0625,608.9241120359334" fill="#0053e0" />
	<polygon points="265.625,622.4557589700652 273.4375,608.9241120359334 281.25,622.4557589700652" fill="#0053e0" />
	<polygon points="281.25,622.4557589700652 289.0625,608.9241120359334 296.875,622.4557589700652" fill="#0053e0" />
	<polygon points="257.8125,635.9874059041971 265.625,622.4557589700653 273.4375,635.9874059041971" fill="#0053e0" />
	<polygon points="250.0,649.5190528383289 257.8125,635.9874059041971 265.625,649.5190528383289" fill="#0053e0" />
	<polygon points="265.625,649.5190528383289 273.4375,635.9874059041971 281.25,649.5190528383289" fill="#0053e0" />
	<polygon points="289.0625,635.9874059041971 296.875,622.4557589700653 304.6875,635.9874059041971" fill="#0053e0" />
	<polygon points="281.25,649.5190528383289 289.0625,635.9874059041971 296.875,649.5190528383289" fill="#0053e0" />
	<polygon points="296.875,649.5190528383289 304.6875,635.9874059041971 312.5,649.5190528383289" fill="#0053e0" />
	<polygon points="335.9375,608.9241120359334 343.75,595.3924651018016 351.5625,608.9241120359334" fill="#0053e0" />
	<polygon points="328.125,622.4557589700652 335.9375,608.9241120359334 343.75,622.4557589700652" fill="#0053e0" />
	<polygon points="343.75,622.4557589700652 351.5625,608.9241120359334 359.375,622.4557589700652" fill="#0053e0" />
	<polygon points="320.3125,635.9874059041971 328.125,622.4557589700653 335.9375,635.9874059041971" fill="#0053e0" />
	<polygon points="312.5,649.5190528383289 320.3125,635.9874059041971 328.125,649.5190528383289" fill="#0053e0" />
	<polygon points="328.125,649.5190528383289 335.9375,635.9874059041971 343.75,649.5190528383289" fill="#0053e0" />
	<polygon points="351.5625,635.9874059041971 359.375,622.4557589700653 367.1875,635.9874059041971" fill="#0053e0" />
	<polygon points="343.75,649.5190528383289 351.5625,635.9874059041971 359.375,649.5190528383289" fill="#0053e0" />
	<polygon points="359.375,649.5190528383289 367.1875,635.9874059041971 375.0,649.5190528383289" fill="#0053e0" />
	<polygon points="117.1875,663.0506997724607 125.0,649.5190528383289 132.8125,663.0506997724607" fill="#0053e0" />
	<polygon points="109.375,676.5823467065925 117.1875,663.0506997724607 125.0,676.5823467065925" fill="#0053e0" />
	<polygon points="125.0,676.5823467065925 132.8125,663.0506997724607 140.625,676.5823467065925" fill="#0053e0" />
	<polygon points="101.5625,690.1139936407244 109.375,676.5823467065926 117.1875,690.1139936407244" fill="#0053e0" />
	<polygon points="93.75,703.6456405748562 101.5625,690.1139936407244 109.375,703.6456405748562" fill="#0053e0" />
	<polygon points="109.375,703.6456405748562 117.1875,690.1139936407244 125.0,703.6456405748562" fill="#0053e0" />
	<polygon points="132.8125,690.1139936407244 140.625,676.5823467065926 148.4375,690.1139936407244" fill="#0053e0" />
	<polygon points="125.0,703.6456405748562 132.8125,690.1139936407244 140.625,703.6456405748562" fill="#0053e0" />
	<polygon points="140.625,703.6456405748562 148.4375,690.1139936407244 156.25,703.6456405748562" fill="#0053e0" />
	<polygon points="85.9375,717.1772875089881 93.75,703.6456405748563 101.5625,717.1772875089881" fill="#0053e0" />
	<polygon points="78.125,730.7089344431199 85.9375,717.1772875089881 93.75,730.7089344431199" fill="#0053e0" />
	<polygon points="93.75,730.7089344431199 101.5625,717.1772875089881 109.375,730.7089344431199" fill="#0053e0" />
	<polygon points="70.3125,744.2405813772518 78.125,730.70893444312 85.9375,744.2405813772518" fill="#0053e0" />
	<polygon points="62.5,757.7722283113836 70.3125,744.2405813772518 78.125,757.7722283113836" fill="#0053e0" />
	<polygon points="78.125,757.7722283113836 85.9375,744.2405813772518 93.75,757.7722283113836" fill="#0053e0" />
	<polygon points="101.5625,744.2405813772518 109.375,730.70893444312 117.1875,744.2405813772518" fill="#0053e0" />
	<polygon points="93.75,757.7722283113836 101.5625,744.2405813772518 109.375,757.7722283113836" fill="#0053e0" />
	<polygon points="109.375,757.7722283113836 117.1875,744.2405813772518 125.0,757.7722283113836" fill="#0053e0" />
	<polygon points="148.4375,717.1772875089881 156.25,703.6456405748563 164.0625,717.1772875089881" fill="#0053e0" />
	<polygon points="140.625,730.7089344431199 148.4375,717.1772875089881 156.25,730.7089344431199" fill="#0053e0" />
	<polygon points="156.25,730.7089344431199 164.0625,717.1772875089881 171.875,730.7089344431199" fill="#0053e0" />
	<polygon points="132.8125,744.2405813772518 140.625,730.70893444312 148.4375,744.2405813772518" fill="#0053e0" />
	<polygon points="125.0,757.7722283113836 132.8125,744.2405813772518 140.625,757.7722283113836" fill="#0053e0" />
	<polygon points="140.625,757.7722283113836 148.4375,744.2405813772518 156.25,757.7722283113836" fill="#0053e0" />
	<polygon points="164.0625,744.2405813772518 171.875,730.70893444312 179.6875,744.2405813772518" fill="#0053e0" />
	<polygon points="156.25,757.7722283113836 164.0625,744.2405813772518 171.875,757.7722283113836" fill="#0053e0" />
	<polygon points="171.875,757.7722283113836 179.6875,744.2405813772518 187.5,757.7722283113836" fill="#0053e0" />
	<polygon points="54.6875,771.3038752455155 62.5,757.7722283113837 70.3125,771.3038752455155" fill="#0053e0" />
	<polygon points="46.875,784.8355221796473 54.6875,771.3038752455155 62.5,784.8355221796473" fill="#0053e0" />
	<polygon points="62.5,784.8355221796473 70.3125,771.3038752455155 78.125,784.8355221796473" fill="#0053e0" />
	<polygon points="39.0625,798.3671691137793 46.875,784.8355221796475 54.6875,798.3671691137793" fill="#0053e0" />
	<polygon points="31.25,811.898816047911 39.0625,798.3671691137793 46.875,811.898816047911" fill="#0053e0" />
	<polygon points="46.875,811.898816047911 54.6875,798.3671691137793 62.5,811.898816047911" fill="#0053e0" />
	<polygon points="70.3125,798.3671691137793 78.125,784.8355221796475 85.9375,798.3671691137793" fill="#0053e0" />
	<polygon points="62.5,811.898816047911 70.3125,798.3671691137793 78.125,811.898816047911" fill="#0053e0" />
	<polygon points="78.125,811.898816047911 85.9375,798.3671691137793 93.75,811.898816047911" fill="#0053e0" />
	<polygon points="23.4375,825.430462982043 31.25,811.8988160479112 39.0625,825.430462982043" fill="#0053e0" />
	<polygon points="15.625,838.9621099161748 23.4375,825.430462982043 31.25,838.9621099161748" fill="#0053e0" />
	<polygon points="31.25,838.9621099161748 39.0625,825.430462982043 46.875,838.9621099161748" fill="#0053e0" />
	<polygon points="7.8125,852.4937568503067 15.625,838.9621099161749 23.4375,852.4937568503067" fill="#0053e0" />
	<polygon points="0,866.0254037844385 7.8125,852.4937568503067 15.625,866.0254037844385" fill="#0053e0" />
	<polygon points="15.625,866.0254037844385 23.4375,852.4937568503067 31.25,866.0254037844385" fill="#0053e0" />
	<polygon points="39.0625,852.4937568503067 46.875,838.9621099161749 54.6875,852.4937568503067" fill="#0053e0" />
	<polygon points="31.25,866.0254037844385 39.0625,852.4937568503067 46.875,866.0254037844385" fill="#0053e0" />
	<polygon points="46.875,866.0254037844385 54.6875,852.4937568503067 62.5,866.0254037844385" fill="#0053e0" />
	<polygon points="85.9375,825.430462982043 93.75,811.8988160479112 101.5625,825.430462982043" fill="#0053e0" />
	<polygon points="78.125,838.9621099161748 85.9375,825.430462982043 93.75,838.9621099161748" fill="#0053e0" />
	<polygon points="93.75,838.9621099161748 101.5625,825.430462982043 109.375,838.9621099161748" fill="#0053e0" />
	<polygon points="70.3125,852.4937568503067 78.125,838.9621099161749 85.9375,852.4937568503067" fill="#0053e0" />
	<polygon points="62.5,866.0254037844385 70.3125,852.4937568503067 78.125,866.0254037844385" fill="#0053e0" />
	<polygon points="78.125,866.0254037844385 85.9375,852.4937568503067 93.75,866.0254037844385" fill="#0053e0" />
	<polygon points="101.5625,852.4937568503067 109.375,838.9621099161749 117.1875,852.4937568503067" fill="#0053e0" />
	<polygon points="93.75,866.0254037844385 101.5625,852.4937568503067 109.375,866.0254037844385" fill="#0053e0" />
	<polygon points="109.375,866.0254037844385 117.1875,852.4937568503067 125.0,866.0254037844385" fill="#0053e0" />
	<polygon points="179.6875,771.3038752455155 187.5,757.7722283113837 195.3125,771.3038752455155" fill="#0053e0" />
	<polygon points="171.875,784.8355221796473 179.6875,771.3038752455155 187.5,784.8355221796473" fill="#0053e0" />
	<polygon points="187.5,784.8355221796473 195.3125,771.3038752455155 203.125,784.8355221796473" fill="#0053e0" />
	<polygon points="164.0625,798.3671691137793 171.875,784.8355221796475 179.6875,798.3671691137793" fill="#0053e0" />
	<polygon points="156.25,811.898816047911 164.0625,798.3671691137793 171.875,811.898816047911" fill="#0053e0" />
	<polygon points="171.875,811.898816047911 179.6875,798.3671691137793 187.5,811.898816047911" fill="#0053e0" />
	<polygon points="195.3125,798.3671691137793 203.125,784.8355221796475 210.9375,798.3671691137793" fill="#0053e0" />
	<polygon points="187.5,811.898816047911 195.3125,798.3671691137793 203.125,811.898816047911" fill="#0053e0" />
	<polygon points="203.125,811.898816047911 210.9375,798.3671691137793 218.75,811.898816047911" fill="#0053e0" />
	<polygon points="148.4375,825.430462982043 156.25,811.8988160479112 164.0625,825.430462982043" fill="#0053e0" />
	<polygon points="140.625,838.9621099161748 148.4375,825.430462982043 156.25,838.9621099161748" fill="#0053e0" />
	<polygon points="156.25,838.9621099161748 164.0625,825.430462982043 171.875,838.9621099161748" fill="#0053e0" />
	<polygon points="132.8125,852.4937568503067 140.625,838.9621099161749 148.4375,852.4937568503067" fill="#0053e0" />
	<polygon points="125.0,866.0254037844385 132.8125,852.4937568503067 140.625,866.0254037844385" fill="#0053e0" />
	<polygon points="140.625,866.0254037844385 148.4375,852.4937568503067 156.25,866.0254037844385" fill="#0053e0" />
	<polygon points="164.0625,852.4937568503067 171.875,838.9621099161749 179.6875,852.4937568503067" fill="#0053e0" />
	<polygon points="156.25,866.0254037844385 164.0625,852.4937568503067 171.875,866.0254037844385" fill="#0053e0" />
	<polygon points="171.875,866.0254037844385 179.6875,852.4937568503067 187.5,866.0254037844385" fill="#0053e0" />
	<polygon points="210.9375,825.430462982043 218.75,811.8988160479112 226.5625,825.430462982043" fill="#0053e0" />
	<polygon points="203.125,838.9621099161748 210.9375,825.430462982043 218.75,838.9621099161748" fill="#0053e0" />
	<polygon points="218.75,838.9621099161748 226.5625,825.430462982043 234.375,838.9621099161748" fill="#0053e0" />
	<polygon points="195.3125,852.4937568503067 203.125,838.9621099161749 210.9375,852.4937568503067" fill="#0053e0" />
	<polygon points="187.5,866.0254037844385 195.3125,852.4937568503067 203.125,866.0254037844385" fill="#0053e0" />
	<polygon points="203.125,866.0254037844385 210.9375,852.4937568503067 218.75,866.0254037844385" fill="#0053e0" />
	<polygon points="226.5625,852.4937568503067 234.375,838.9621099161749 242.1875,852.4937568503067" fill="#0053e0" />
	<polygon points="218.75,866.0254037844385 226.5625,852.4937568503067 234.375,866.0254037844385" fill="#0053e0" />
	<polygon points="234.375,866.0254037844385 242.1875,852.4937568503067 250.0,866.0254037844385" fill="#0053e0" />
	<polygon points="367.1875,663.0506997724607 375.0,649.5190528383289 382.8125,663.0506997724607" fill="#0053e0" />
	<polygon points="359.375,676.5823467065925 367.1875,663.0506997724607 375.0,676.5823467065925" fill="#0053e0" />
	<polygon points="375.0,676.5823467065925 382.8125,663.0506997724607 390.625,676.5823467065925" fill="#0053e0" />
	<polygon points="351.5625,690.1139936407244 359.375,676.5823467065926 367.1875,690.1139936407244" fill="#0053e0" />
	<polygon points="343.75,703.6456405748562 351.5625,690.1139936407244 359.375,703.6456405748562" fill="#0053e0" />
	<polygon points="359.375,703.6456405748562 367.1875,690.1139936407244 375.0,703.6456405748562" fill="#0053e0" />
	<polygon points="382.8125,690.1139936407244 390.625,676.5823467065926 398.4375,690.1139936407244" fill="#0053e0" />
	<polygon points="375.0,703.6456405748562 382.8125,690.1139936407244 390.625,703.6456405748562" fill="#0053e0" />
	<polygon points="390.625,703.6456405748562 398.4375,690.1139936407244 406.25,703.6456405748562" fill="#0053e0" />
	<polygon points="335.9375,717.1772875089881 343.75,703.6456405748563 351.5625,717.1772875089881" fill="#0053e0" />
	<polygon points="328.125,730.7089344431199 335.9375,717.1772875089881 343.75,730.7089344431199" fill="#0053e0" />
	<polygon points="343.75,730.7089344431199 351.5625,717.1772875089881 359.375,730.7089344431199" fill="#0053e0" />
	<polygon points="320.3125,744.2405813772518 328.125,730.70893444312 335.9375,744.2405813772518" fill="#0053e0" />
	<polygon points="312.5,757.7722283113836 320.3125,744.2405813772518 328.125,757.7722283113836" fill="#0053e0" />
	<polygon points="328.125,757.7722283113836 335.9375,744.2405813772518 343.75,757.7722283113836" fill="#0053e0" />
	<polygon points="351.5625,744.2405813772518 359.375,730.70893444312 367.1875,744.2405813772518" fill="#0053e0" />
	<polygon points="343.75,757.7722283113836 351.5625,744.2405813772518 359.375,757.7722283113836" fill="#0053e0" />
	<polygon points="359.375,757.7722283113836 367.1875,744.2405813772518 375.0,757.7722283113836" fill="#0053e0" />
	<polygon points="398.4375,717.1772875089881 406.25,703.6456405748563 414.0625,717.1772875089881" fill="#0053e0" />
	<polygon points="390.625,730.7089344431199 398.4375,717.1772875089881 406.25,730.7089344431199" fill="#0053e0" />
	<polygon points="406.25,730.7089344431199 414.0625,717.1772875089881 421.875,730.7089344431199" fill="#0053e0" />
	<polygon points="382.8125,744.2405813772518 390.625,730.70893444312 398.4375,744.2405813772518" fill="#0053e0" />
	<polygon points="375.0,757.7722283113836 382.8125,744.2405813772518 390.625,757.7722283113836" fill="#0053e0" />
	<polygon points="390.625,757.7722283113836 398.4375,744.2405813772518 406.25,757.7722283113836" fill="#0053e0" />
	<polygon points="414.0625,744.2405813772518 421.875,730.70893444312 429.6875,744.2405813772518" fill="#0053e0" />
	<polygon points="406.25,757.7722283113836 414.0625,744.2405813772518 421.875,757.7722283113836" fill="#0053e0" />
	<polygon points="421.875,757.7722283113836 429.6875,744.2405813772518 437.5,757.7722283113836" fill="#0053e0" />
	<polygon points="304.6875,771.3038752455155 312.5,757.7722283113837 320.3125,771.3038752455155" fill="#0053e0" />
	<polygon points="296.875,784.8355221796473 304.6875,771.3038752455155 312.5,784.8355221796473" fill="#0053e0" />
	<polygon points="312.5,784.8355221796473 320.3125,771.3038752455155 328.125,784.8355221796473" fill="#0053e0" />
	<polygon points="289.0625,798.3671691137793 296.875,784.8355221796475 304.6875,798.3671691137793" fill="#0053e0" />
	<polygon points="281.25,811.898816047911 289.0625,798.3671691137793 296.875,811.898816047911" fill="#0053e0" />
	<polygon points="296.875,811.898816047911 304.6875,798.3671691137793 312.5,811.898816047911" fill="#0053e0" />
	<polygon points="320.3125,798.3671691137793 328.125,784.8355221796475 335.9375,798.3671691137793" fill="#0053e0" />
	<polygon points="312.5,811.898816047911 320.3125,798.3671691137793 328.125,811.898816047911" fill="#0053e0" />
	<polygon points="328.125,811.898816047911 335.9375,798.3671691137793 343.75,811.898816047911" fill="#0053e0" />
	<polygon points="273.4375,825.430462982043 281.25,811.8988160479112 289.0625,825.430462982043" fill="#0053e0" />
	<polygon points="265.625,838.9621099161748 273.4375,825.430462982043 281.25,838.9621099161748" fill="#0053e0" />
	<polygon points="281.25,838.9621099161748 289.0625,825.430462982043 296.875,838.9621099161748" fill="#0053e0" />
	<polygon points="257.8125,852.4937568503067 265.625,838.9621099161749 273.4375,852.4937568503067" fill="#0053e0" />
	<polygon points="250.0,866.0254037844385 257.8125,852.4937568503067 265.625,866.0254037844385" fill="#0053e0" />
	<polygon points="265.625,866.0254037844385 273.4375,852.4937568503067 281.25,866.0254037844385" fill="#0053e0" />
	<polygon points="289.0625,852.4937568503067 296.875,838.9621099161749 304.6875,852.4937568503067" fill="#0053e0" />
	<polygon points="281.25,866.0254037844385 289.0625,852.4937568503067 296.875,866.0254037844385" fill="#0053e0" />
	<polygon points="296.875,866.0254037844385 304.6875,852.4937568503067 312.5,866.0254037844385" fill="#0053e0" />
	<polygon points="335.9375,825.430462982043 343.75,811.8988160479112 351.5625,825.430462982043" fill="#0053e0" />
	<polygon points="328.125,838.9621099161748 335.9375,825.430462982043 343.75,838.9621099161748" fill="#0053e0" />
	<polygon points="343.75,838.9621099161748 351.5625,825.430462982043 359.375,838.9621099161748" fill="#0053e0" />
	<polygon points="320.3125,852.4937568503067 328.125,838.9621099161749 335.9375,852.4937568503067" fill="#0053e0" />
	<polygon points="312.5,866.0254037844385 320.3125,852.4937568503067 328.125,866.0254037844385" fill="#0053e0" />
	<polygon points="328.125,866.0254037844385 335.9375,852.4937568503067 343.75,866.0254037844385" fill="#0053e0" />
	<polygon points="351.5625,852.4937568503067 359.375,838.9621099161749 367.1875,852.4937568503067" fill="#0053e0" />
	<polygon points="343.75,866.0254037844385 351.5625,852.4937568503067 359.375,866.0254037844385" fill="#0053e0" />
	<polygon points="359.375,866.0254037844385 367.1875,852.4937568503067 375.0,866.0254037844385" fill="#0053e0" />
	<polygon points="429.6875,771.3038752455155 437.5,757.7722283113837 445.3125,771.3038752455155" fill="#0053e0" />
	<polygon points="421.875,784.8355221796473 429.6875,771.3038752455155 437.5,784.8355221796473" fill="#0053e0" />
	<polygon points="437.5,784.8355221796473 445.3125,771.3038752455155 453.125,784.8355221796473" fill="#0053e0" />
	<polygon points="414.0625,798.3671691137793 421.875,784.8355221796475 429.6875,798.3671691137793" fill="#0053e0" />
	<polygon points="406.25,811.898816047911 414.0625,798.3671691137793 421.875,811.898816047911" fill="#0053e0" />
	<polygon points="421.875,811.898816047911 429.6875,798.3671691137793 437.5,811.898816047911" fill="#0053e0" />
	<polygon points="445.3125,798.3671691137793 453.125,784.8355221796475 460.9375,798.3671691137793" fill="#0053e0" />
	<polygon points="437.5,811.898816047911 445.3125,798.3671691137793 453.125,811.898816047911" fill="#0053e0" />
	<polygon points="453.125,811.898816047911 460.9375,798.3671691137793 468.75,811.898816047911" fill="#0053e0" />
	<polygon points="398.4375,825.430462982043 406.25,811.8988160479112 414.0625,825.430462982043" fill="#0053e0" />
	<polygon points="390.625,838.9621099161748 398.4375,825.430462982043 406.25,838.9621099161748" fill="#0053e0" />
	<polygon points="406.25,838.9621099161748 414.0625,825.430462982043 421.875,838.9621099161748" fill="#0053e0" />
	<polygon points="382.8125,852.4937568503067 390.625,838.9621099161749 398.4375,852.4937568503067" fill="#0053e0" />
	<polygon points="375.0,866.0254037844385 382.8125,852.4937568503067 390.625,866.0254037844385" fill="#0053e0" />
	<polygon points="390.625,866.0254037844385 398.4375,852.4937568503067 406.25,866.0254037844385" fill="#0053e0" />
	<polygon points="414.0625,852.4937568503067 421.875,838.9621099161749 429.6875,852.4937568503067" fill="#0053e0" />
	<polygon points="406.25,866.0254037844385 414.0625,852.4937568503067 421.875,866.0254037844385" fill="#0053e0" />
	<polygon points="421.875,866.0254037844385 429.6875,852.4937568503067 437.5,866.0254037844385" fill="#0053e0" />
	<polygon points="460.9375,825.430462982043 468.75,811.8988160479112 476.5625,825.430462982043" fill="#0053e0" />
	<polygon points="453.125,838.9621099161748 460.9375,825.430462982043 468.75,838.9621099161748" fill="#0053e0" />
	<polygon points="468.75,838.9621099161748 476.5625,825.430462982043 484.375,838.9621099161748" fill="#0053e0" />
	<polygon points="445.3125,852.4937568503067 453.125,838.9621099161749 460.9375,852.4937568503067" fill="#0053e0" />
	<polygon points="437.5,866.0254037844385 445.3125,852.4937568503067 453.125,866.0254037844385" fill="#0053e0" />
	<polygon points="453.125,866.0254037844385 460.9375,852.4937568503067 468.75,866.0254037844385" fill="#0053e0" />
	<polygon points="476.5625,852.4937568503067 484.375,838.9621099161749 492.1875,852.4937568503067" fill="#0053e0" />
	<polygon points="468.75,866.0254037844385 476.5625,852.4937568503067 484.375,866.0254037844385" fill="#0053e0" />
	<polygon points="484.375,866.0254037844385 492.1875,852.4937568503067 500.0,866.0254037844385" fill="#0053e0" />
	<polygon points="742.1875,446.54434882635115 750.0,433.0127018922193 757.8125,446.54434882635115" fill="#0053e0" />
	<polygon points="734.375,460.075995760483 742.1875,446.54434882635115 750.0,460.075995760483" fill="#0053e0" />
	<polygon points="750.0,460.075995760483 757.8125,446.54434882635115 765.625,460.075995760483" fill="#0053e0" />
	<polygon points="726.5625,473.60764269461487 734.375,460.075995760483 742.1875,473.60764269461487" fill="#0053e0" />
	<polygon points="718.75,487.1392896287467 726.5625,473.60764269461487 734.375,487.1392896287467" fill="#0053e0" />
	<polygon points="734.375,487.1392896287467 742.1875,473.60764269461487 750.0,487.1392896287467" fill="#0053e0" />
	<polygon points="757.8125,473.60764269461487 765.625,460.075995760483 773.4375,473.60764269461487" fill="#0053e0" />
	<polygon points="750.0,487.1392896287467 757.8125,473.60764269461487 765.625,487.1392896287467" fill="#0053e0" />
	<polygon points="765.625,487.1392896287467 773.4375,473.60764269461487 781.25,487.1392896287467" fill="#0053e0" />
	<polygon points="710.9375,500.6709365628786 718.75,487.1392896287467 726.5625,500.6709365628786" fill="#0053e0" />
	<polygon points="703.125,514.2025834970104 710.9375,500.6709365628786 718.75,514.2025834970104" fill="#0053e0" />
	<polygon points="718.75,514.2025834970104 726.5625,500.6709365628786 734.375,514.2025834970104" fill="#0053e0" />
	<polygon points="695.3125,527.7342304311422 703.125,514.2025834970104 710.9375,527.7342304311422" fill="#0053e0" />
	<polygon points="687.5,541.265877365274 695.3125,527.7342304311422 703.125,541.265877365274" fill="#0053e0" />
	<polygon points="703.125,541.265877365274 710.9375,527.7342304311422 718.75,541.265877365274" fill="#0053e0" />
	<polygon points="726.5625,527.7342304311422 734.375,514.2025834970104 742.1875,527.7342304311422" fill="#0053e0" />
	<polygon points="718.75,541.265877365274 726.5625,527.7342304311422 734.375,541.265877365274" fill="#0053e0" />
	<polygon points="734.375,541.265877365274 742.1875,527.7342304311422 750.0,541.265877365274" fill="#0053e0" />
	<polygon points="773.4375,500.6709365628786 781.25,487.1392896287467 789.0625,500.6709365628786" fill="#0053e0" />
	<polygon points="765.625,514.2025834970104 773.4375,500.6709365628786 781.25,514.2025834970104" fill="#0053e0" />
	<polygon points="781.25,514.2025834970104 789.0625,500.6709365628786 796.875,514.2025834970104" fill="#0053e0" />
	<polygon points="757.8125,527.7342304311422 765.625,514.2025834970104 773.4375,527.7342304311422" fill="#0053e0" />
	<polygon points="750.0,541.265877365274 757.8125,527.7342304311422 765.625,541.265877365274" fill="#0053e0" />
	<polygon points="765.625,541.265877365274 773.4375,527.7342304311422 781.25,541.265877365274" fill="#0053e0" />
	<polygon points="789.0625,527.7342304311422 796.875,514.2025834970104 804.6875,527.7342304311422" fill="#0053e0" />
	<polygon points="781.25,541.265877365274 789.0625,527.7342304311422 796.875,541.265877365274" fill="#0053e0" />
	<polygon points="796.875,541.265877365274 804.6875,527.7342304311422 812.5,541.265877365274" fill="#0053e0" />
	<polygon points="679.6875,554.797524299406 687.5,541.2658773652742 695.3125,554.797524299406" fill="#0053e0" />
	<polygon points="671.875,568.3291712335377 679.6875,554.797524299406 687.5,568.3291712335377" fill="#0053e0" />
	<polygon points="687.5,568.3291712335377 695.3125,554.797524299406 703.125,568.3291712335377" fill="#0053e0" />
	<polygon points="664.0625,581.8608181676697 671.875,568.3291712335379 679.6875,581.8608181676697" fill="#0053e0" />
	<polygon points="656.25,595.3924651018015 664.0625,581.8608181676697 671.875,595.3924651018015" fill="#0053e0" />
	<polygon points="671.875,595.3924651018015 679.6875,581.8608181676697 687.5,595.3924651018015" fill="#0053e0" />
	<polygon points="695.3125,581.8608181676697 703.125,568.3291712335379 710.9375,581.8608181676697" fill="#0053e0" />
	<polygon points="687.5,595.3924651018015 695.3125,581.8608181676697 703.125,595.3924651018015" fill="#0053e0" />
	<polygon points="703.125,595.3924651018015 710.9375,581.8608181676697 718.75,595.3924651018015" fill="#0053e0" />
	<polygon points="648.4375,608.9241120359334 656.25,595.3924651018016 664.0625,608.9241120359334" fill="#0053e0" />
	<polygon points="640.625,622.4557589700652 648.4375,608.9241120359334 656.25,622.4557589700652" fill="#0053e0" />
	<polygon points="656.25,622.4557589700652 664.0625,608.9241120359334 671.875,622.4557589700652" fill="#0053e0" />
	<polygon points="632.8125,635.9874059041971 640.625,622.4557589700653 648.4375,635.9874059041971" fill="#0053e0" />
	<polygon points="625.0,649.5190528383289 632.8125,635.9874059041971 640.625,649.5190528383289" fill="#0053e0" />
	<polygon points="640.625,649.5190528383289 648.4375,635.9874059041971 656.25,649.5190528383289" fill="#0053e0" />
	<polygon points="664.0625,635.9874059041971 671.875,622.4557589700653 679.6875,635.9874059041971" fill="#0053e0" />
	<polygon points="656.25,649.5190528383289 664.0625,635.9874059041971 671.875,649.5190528383289" fill="#0053e0" />
	<polygon points="671.875,649.5190528383289 679.6875,635.9874059041971 687.5,649.5190528383289" fill="#0053e0" />
	<polygon points="710.9375,608.9241120359334 718.75,595.3924651018016 726.5625,608.9241120359334" fill="#0053e0" />
	<polygon points="703.125,622.4557589700652 710.9375,608.9241120359334 718.75,622.4557589700652" fill="#0053e0" />
	<polygon points="718.75,622.4557589700652 726.5625,608.9241120359334 734.375,622.4557589700652" fill="#0053e0" />
	<polygon points="695.3125,635.9874059041971 703.125,622.4557589700653 710.9375,635.9874059041971" fill="#0053e0" />
	<polygon points="687.5,649.5190528383289 695.3125,635.9874059041971 703.125,649.5190528383289" fill="#0053e0" />
	<polygon points="703.125,649.5190528383289 710.9375,635.9874059041971 718.75,649.5190528383289" fill="#0053e0" />
	<polygon points="726.5625,635.9874059041971 734.375,622.4557589700653 742.1875,635.9874059041971" fill="#0053e0" />
	<polygon points="718.75,649.5190528383289 726.5625,635.9874059041971 734.375,649.5190528383289" fill="#0053e0" />
	<polygon points="734.375,649.5190528383289 742.1875,635.9874059041971 750.0,649.5190528383289" fill="#0053e0" />
	<polygon points="804.6875,554.797524299406 812.5,541.2658773652742 820.3125,554.797524299406" fill="#0053e0" />
	<polygon points="796.875,568.3291712335377 804.6875,554.797524299406 812.5,568.3291712335377" fill="#0053e0" />
	<polygon points="812.5,568.3291712335377 820.3125,554.797524299406 828.125,568.3291712335377" fill="#0053e0" />
	<polygon points="789.0625,581.8608181676697 796.875,568.3291712335379 804.6875,581.8608181676697" fill="#0053e0" />
	<polygon points="781.25,595.3924651018015 789.0625,581.8608181676697 796.875,595.3924651018015" fill="#0053e0" />
	<polygon points="796.875,595.3924651018015 804.6875,581.8608181676697 812.5,595.3924651018015" fill="#0053e0" />
	<polygon points="820.3125,581.8608181676697 828.125,568.3291712335379 835.9375,581.8608181676697" fill="#0053e0" />
	<polygon points="812.5,595.3924651018015 820.3125,581.8608181676697 828.125,595.3924651018015" fill="#0053e0" />
	<polygon points="828.125,595.3924651018015 835.9375,581.8608181676697 843.75,595.3924651018015" fill="#0053e0" />
	<polygon points="773.4375,608.9241120359334 781.25,595.3924651018016 789.0625,608.9241120359334" fill="#0053e0" />
	<polygon points="765.625,622.4557589700652 773.4375,608.9241120359334 781.25,622.4557589700652" fill="#0053e0" />
	<polygon points="781.25,622.4557589700652 789.0625,608.9241120359334 796.875,622.4557589700652" fill="#0053e0" />
	<polygon points="757.8125,635.9874059041971 765.625,622.4557589700653 773.4375,635.9874059041971" fill="#0053e0" />
	<polygon points="750.0,649.5190528383289 757.8125,635.9874059041971 765.625,649.5190528383289" fill="#0053e0" />
	<polygon points="765.625,649.5190528383289 773.4375,635.9874059041971 781.25,649.5190528383289" fill="#0053e0" />
	<polygon points="789.0625,635.9874059041971 796.875,622.4557589700653 804.6875,635.9874059041971" fill="#0053e0" />
	<polygon points="781.25,649.5190528383289 789.0625,635.9874059041971 796.875,649.5190528383289" fill="#0053e0" />
	<polygon points="796.875,649.5190528383289 804.6875,635.9874059041971 812.5,649.5190528383289" fill="#0053e0" />
	<polygon points="835.9375,608.9241120359334 843.75,595.3924651018016 851.5625,608.9241120359334" fill="#0053e0" />
	<polygon points="828.125,622.4557589700652 835.9375,608.9241120359334 843.75,622.4557589700652" fill="#0053e0" />
	<polygon points="843.75,622.4557589700652 851.5625,608.9241120359334 859.375,622.4557589700652" fill="#0053e0" />
	<polygon points="820.3125,635.9874059041971 828.125,622.4557589700653 835.9375,635.9874059041971" fill="#0053e0" />
	<polygon points="812.5,649.5190528383289 820.3125,635.9874059041971 828.125,649.5190528383289" fill="#0053e0" />
	<polygon points="828.125,649.5190528383289 835.9375,635.9874059041971 843.75,649.5190528383289" fill="#0053e0" />
	<polygon points="851.5625,635.9874059041971 859.375,622.4557589700653 867.1875,635.9874059041971" fill="#0053e0" />
	<polygon points="843.75,649.5190528383289 851.5625,635.9874059041971 859.375,649.5190528383289" fill="#0053e0" />
	<polygon points="859.375,649.5190528383289 867.1875,635.9874059041971 875.0,649.5190528383289" fill="#0053e0" />
	<polygon points="617.1875,663.0506997724607 625.0,649.5190528383289 632.8125,663.0506997724607" fill="#0053e0" />
	<polygon points="609.375,676.5823467065925 617.1875,663.0506997724607 625.0,676.5823467065925" fill="#0053e0" />
	<polygon points="625.0,676.5823467065925 632.8125,663.0506997724607 640.625,676.5823467065925" fill="#0053e0" />
	<polygon points="601.5625,690.1139936407244 609.375,676.5823467065926 617.1875,690.1139936407244" fill="#0053e0" />
	<polygon points="593.75,703.6456405748562 601.5625,690.1139936407244 609.375,703.6456405748562" fill="#0053e0" />
	<polygon points="609.375,703.6456405748562 617.1875,690.1139936407244 625.0,703.6456405748562" fill="#0053e0" />
	<polygon points="632.8125,690.1139936407244 640.625,676.5823467065926 648.4375,690.1139936407244" fill="#0053e0" />
	<polygon points="625.0,703.6456405748562 632.8125,690.1139936407244 640.625,703.6456405748562" fill="#0053e0" />
	<polygon points="640.625,703.6456405748562 648.4375,690.1139936407244 656.25,703.6456405748562" fill="#0053e0" />
	<polygon points="585.9375,717.1772875089881 593.75,703.6456405748563 601.5625,717.1772875089881" fill="#0053e0" />
	<polygon points="578.125,730.7089344431199 585.9375,717.1772875089881 593.75,730.7089344431199" fill="#0053e0" />
	<polygon points="593.75,730.7089344431199 601.5625,717.1772875089881 609.375,730.7089344431199" fill="#0053e0" />
	<polygon points="570.3125,744.2405813772518 578.125,730.70893444312 585.9375,744.2405813772518" fill="#0053e0" />
	<polygon points="562.5,757.7722283113836 570.3125,744.2405813772518 578.125,757.7722283113836" fill="#0053e0" />
	<polygon points="578.125,757.7722283113836 585.9375,744.2405813772518 593.75,757.7722283113836" fill="#0053e0" />
	<polygon points="601.5625,744.2405813772518 609.375,730.70893444312 617.1875,744.2405813772518" fill="#0053e0" />
	<polygon points="593.75,757.7722283113836 601.5625,744.2405813772518 609.375,757.7722283113836" fill="#0053e0" />
	<polygon points="609.375,757.7722283113836 617.1875,744.2405813772518 625.0,757.7722283113836" fill="#0053e0" />
	<polygon points="648.4375,717.1772875089881 656.25,703.6456405748563 664.0625,717.1772875089881" fill="#0053e0" />
	<polygon points="640.625,730.7089344431199 648.4375,717.1772875089881 656.25,730.7089344431199" fill="#0053e0" />
	<polygon points="656.25,730.7089344431199 664.0625,717.1772875089881 671.875,730.7089344431199" fill="#0053e0" />
	<polygon points="632.8125,744.2405813772518 640.625,730.70893444312 648.4375,744.2405813772518" fill="#0053e0" />
	<polygon points="625.0,757.7722283113836 632.8125,744.2405813772518 640.625,757.7722283113836" fill="#0053e0" />
	<polygon points="640.625,757.7722283113836 648.4375,744.2405813772518 656.25,757.7722283113836" fill="#0053e0" />
	<polygon points="664.0625,744.2405813772518 671.875,730.70893444312 679.6875,744.2405813772518" fill="#0053e0" />
	<polygon points="656.25,757.7722283113836 664.0625,744.2405813772518 671.875,757.7722283113836" fill="#0053e0" />
	<polygon points="671.875,757.7722283113836 679.6875,744.2405813772518 687.5,757.7722283113836" fill="#0053e0" />
	<polygon points="554.6875,771.3038752455155 562.5,757.7722283113837 570.3125,771.3038752455155" fill="#0053e0" />
	<polygon points="546.875,784.8355221796473 554.6875,771.3038752455155 562.5,784.8355221796473" fill="#0053e0" />
	<polygon points="562.5,784.8355221796473 570.3125,771.3038752455155 578.125,784.8355221796473" fill="#0053e0" />
	<polygon points="539.0625,798.3671691137793 546.875,784.8355221796475 554.6875,798.3671691137793" fill="#0053e0" />
	<polygon points="531.25,811.898816047911 539.0625,798.3671691137793 546.875,811.898816047911" fill="#0053e0" />
	<polygon points="546.875,811.898816047911 554.6875,798.3671691137793 562.5,811.898816047911" fill="#0053e0" />
	<polygon points="570.3125,798.3671691137793 578.125,784.8355221796475 585.9375,798.3671691137793" fill="#0053e0" />
	<polygon points="562.5,811.898816047911 570.3125,798.3671691137793 578.125,811.898816047911" fill="#0053e0" />
	<polygon points="578.125,811.898816047911 585.9375,798.3671691137793 593.75,811.898816047911" fill="#0053e0" />
	<polygon points="523.4375,825.430462982043 531.25,811.8988160479112 539.0625,825.430462982043" fill="#0053e0" />
	<polygon points="515.625,838.9621099161748 523.4375,825.430462982043 531.25,838.9621099161748" fill="#0053e0" />
	<polygon points="531.25,838.9621099161748 539.0625,825.430462982043 546.875,838.9621099161748" fill="#0053e0" />
	<polygon points="507.8125,852.4937568503067 515.625,838.9621099161749 523.4375,852.4937568503067" fill="#0053e0" />
	<polygon points="500.0,866.0254037844385 507.8125,852.4937568503067 515.625,866.0254037844385" fill="#0053e0" />
	<polygon points="515.625,866.0254037844385 523.4375,852.4937568503067 531.25,866.0254037844385" fill="#0053e0" />
	<polygon points="539.0625,852.4937568503067 546.875,838.9621099161749 554.6875,852.4937568503067" fill="#0053e0" />
	<polygon points="531.25,866.0254037844385 539.0625,852.4937568503067 546.875,866.0254037844385" fill="#0053e0" />
	<polygon points="546.875,866.0254037844385 554.6875,852.4937568503067 562.5,866.0254037844385" fill="#0053e0" />
	<polygon points="585.9375,825.430462982043 593.75,811.8988160479112 601.5625,825.430462982043" fill="#0053e0" />
	<polygon points="578.125,838.9621099161748 585.9375,825.430462982043 593.75,838.9621099161748" fill="#0053e0" />
	<polygon points="593.75,838.9621099161748 601.5625,825.430462982043 609.375,838.9621099161748" fill="#0053e0" />
	<polygon points="570.3125,852.4937568503067 578.125,838.9621099161749 585.9375,852.4937568503067" fill="#0053e0" />
	<polygon points="562.5,866.0254037844385 570.3125,852.4937568503067 578.125,866.0254037844385" fill="#0053e0" />
	<polygon points="578.125,866.0254037844385 585.9375,852.4937568503067 593.75,866.0254037844385" fill="#0053e0" />
	<polygon points="601.5625,852.4937568503067 609.375,838.9621099161749 617.1875,852.4937568503067" fill="#0053e0" />
	<polygon points="593.75,866.0254037844385 601.5625,852.4937568503067 609.375,866.0254037844385" fill="#0053e0" />
	<polygon points="609.375,866.0254037844385 617.1875,852.4937568503067 625.0,866.0254037844385" fill="#0053e0" />
	<polygon points="679.6875,771.3038752455155 687.5,757.7722283113837 695.3125,771.3038752455155" fill="#0053e0" />
	<polygon points="671.875,784.8355221796473 679.6875,771.3038752455155 687.5,784.8355221796473" fill="#0053e0" />
	<polygon points="687.5,784.8355221796473 695.3125,771.3038752455155 703.125,784.8355221796473" fill="#0053e0" />
	<polygon points="664.0625,798.3671691137793 671.875,784.8355221796475 679.6875,798.3671691137793" fill="#0053e0" />
	<polygon points="656.25,811.898816047911 664.0625,798.3671691137793 671.875,811.898816047911" fill="#0053e0" />
	<polygon points="671.875,811.898816047911 679.6875,798.3671691137793 687.5,811.898816047911" fill="#0053e0" />
	<polygon points="695.3125,798.3671691137793 703.125,784.8355221796475 710.9375,798.3671691137793" fill="#0053e0" />
	<polygon points="687.5,811.898816047911 695.3125,798.3671691137793 703.125,811.898816047911" fill="#0053e0" />
	<polygon points="703.125,811.898816047911 710.9375,798.3671691137793 718.75,811.898816047911" fill="#0053e0" />
	<polygon points="648.4375,825.430462982043 656.25,811.8988160479112 664.0625,825.430462982043" fill="#0053e0" />
	<polygon points="640.625,838.9621099161748 648.4375,825.430462982043 656.25,838.9621099161748" fill="#0053e0" />
	<polygon points="656.25,838.9621099161748 664.0625,825.430462982043 671.875,838.9621099161748" fill="#0053e0" />
	<polygon points="632.8125,852.4937568503067 640.625,838.9621099161749 648.4375,852.4937568503067" fill="#0053e0" />
	<polygon points="625.0,866.0254037844385 632.8125,852.4937568503067 640.625,866.0254037844385" fill="#0053e0" />
	<polygon points="640.625,866.0254037844385 648.4375,852.4937568503067 656.25,866.0254037844385" fill="#0053e0" />
	<polygon points="664.0625,852.4937568503067 671.875,838.9621099161749 679.6875,852.4937568503067" fill="#0053e0" />
	<polygon points="656.25,866.0254037844385 664.0625,852.4937568503067 671.875,866.0254037844385" fill="#0053e0" />
	<polygon points="671.875,866.0254037844385 679.6875,852.4937568503067 687.5,866.0254037844385" fill="#0053e0" />
	<polygon points="710.9375,825.430462982043 718.75,811.8988160479112 726.5625,825.430462982043" fill="#0053e0" />
	<polygon points="703.125,838.9621099161748 710.9375,825.430462982043 718.75,838.9621099161748" fill="#0053e0" />
	<polygon points="718.75,838.9621099161748 726.5625,825.430462982043 734.375,838.9621099161748" fill="#0053e0" />
	<polygon points="695.3125,852.4937568503067 703.125,838.9621099161749 710.9375,852.4937568503067" fill="#0053e0" />
	<polygon points="687.5,866.0254037844385 695.3125,852.4937568503067 703.125,866.0254037844385" fill="#0053e0" />
	<polygon points="703.125,866.0254037844385 710.9375,852.4937568503067 718.75,866.0254037844385" fill="#0053e0" />
	<polygon points="726.5625,852.4937568503067 734.375,838.9621099161749 742.1875,852.4937568503067" fill="#0053e0" />
	<polygon points="718.75,866.0254037844385 726.5625,852.4937568503067 734.375,866.0254037844385" fill="#0053e0" />
	<polygon points="734.375,866.0254037844385 742.1875,852.4937568503067 750.0,866.0254037844385" fill="#0053e0" />
	<polygon points="867.1875,663.0506997724607 875.0,649.5190528383289 882.8125,663.0506997724607" fill="#0053e0" />
	<polygon points="859.375,676.5823467065925 867.1875,663.0506997724607 875.0,676.5823467065925" fill="#0053e0" />
	<polygon points="875.0,676.5823467065925 882.8125,663.0506997724607 890.625,676.5823467065925" fill="#0053e0" />
	<polygon points="851.5625,690.1139936407244 859.375,676.5823467065926 867.1875,690.1139936407244" fill="#0053e0" />
	<polygon points="843.75,703.6456405748562 851.5625,690.1139936407244 859.375,703.6456405748562" fill="#0053e0" />
	<polygon points="859.375,703.6456405748562 867.1875,690.1139936407244 875.0,703.6456405748562" fill="#0053e0" />
	<polygon points="882.8125,690.1139936407244 890.625,676.5823467065926 898.4375,690.1139936407244" fill="#0053e0" />
	<polygon points="875.0,703.6456405748562 882.8125,690.1139936407244 890.625,703.6456405748562" fill="#0053e0" />
	<polygon points="890.625,703.6456405748562 898.4375,690.1139936407244 906.25,703.6456405748562" fill="#0053e0" />
	<polygon points="835.9375,717.1772875089881 843.75,703.6456405748563 851.5625,717.1772875089881" fill="#0053e0" />
	<polygon points="828.125,730.7089344431199 835.9375,717.1772875089881 843.75,730.7089344431199" fill="#0053e0" />
	<polygon points="843.75,730.7089344431199 851.5625,717.1772875089881 859.375,730.7089344431199" fill="#0053e0" />
	<polygon points="820.3125,744.2405813772518 828.125,730.70893444312 835.9375,744.2405813772518" fill="#0053e0" />
	<polygon points="812.5,757.7722283113836 820.3125,744.2405813772518 828.125,757.7722283113836" fill="#0053e0" />
	<polygon points="828.125,757.7722283113836 835.9375,744.2405813772518 843.75,757.7722283113836" fill="#0053e0" />
	<polygon points="851.5625,744.2405813772518 859.375,730.70893444312 867.1875,744.2405813772518" fill="#0053e0" />
	<polygon points="843.75,757.7722283113836 851.5625,744.2405813772518 859.375,757.7722283113836" fill="#0053e0" />
	<polygon points="859.375,757.7722283113836 867.1875,744.2405813772518 875.0,757.7722283113836" fill="#0053e0" />
	<polygon points="898.4375,717.1772875089881 906.25,703.6456405748563 914.0625,717.1772875089881" fill="#0053e0" />
	<polygon points="890.625,730.7089344431199 898.4375,717.1772875089881 906.25,730.7089344431199" fill="#0053e0" />
	<polygon points="906.25,730.7089344431199 914.0625,717.1772875089881 921.875,730.7089344431199" fill="#0053e0" />
	<polygon points="882.8125,744.2405813772518 890.625,730.70893444312 898.4375,744.2405813772518" fill="#0053e0" />
	<polygon points="875.0,757.7722283113836 882.8125,744.2405813772518 890.625,757.7722283113836" fill="#0053e0" />
	<polygon points="890.625,757.7722283113836 898.4375,744.2405813772518 906.25,757.7722283113836" fill="#0053e0" />
	<polygon points="914.0625,744.2405813772518 921.875,730.70893444312 929.6875,744.2405813772518" fill="#0053e0" />
	<polygon points="906.25,757.7722283113836 914.0625,744.2405813772518 921.875,757.7722283113836" fill="#0053e0" />
	<polygon points="921.875,757.7722283113836 929.6875,744.2405813772518 937.5,757.7722283113836" fill="#0053e0" />
	<polygon points="804.6875,771.3038752455155 812.5,757.7722283113837 820.3125,771.3038752455155" fill="#0053e0" />
	<polygon points="796.875,784.8355221796473 804.6875,771.3038752455155 812.5,784.8355221796473" fill="#0053e0" />
	<polygon points="812.5,784.8355221796473 820.3125,771.3038752455155 828.125,784.8355221796473" fill="#0053e0" />
	<polygon points="789.0625,798.3671691137793 796.875,784.8355221796475 804.6875,798.3671691137793" fill="#0053e0" />
	<polygon points="781.25,811.898816047911 789.0625,798.3671691137793 796.875,811.898816047911" fill="#0053e0" />
	<polygon points="796.875,811.898816047911 804.6875,798.3671691137793 812.5,811.898816047911" fill="#0053e0" />
	<polygon points="820.3125,798.3671691137793 828.125,784.8355221796475 835.9375,798.3671691137793" fill="#0053e0" />
	<polygon points="812.5,811.898816047911 820.3125,798.3671691137793 828.125,811.898816047911" fill="#0053e0" />
	<polygon points="828.125,811.898816047911 835.9375,798.3671691137793 843.75,811.898816047911" fill="#0053e0" />
	<polygon points="773.4375,825.430462982043 781.25,811.8988160479112 789.0625,825.430462982043" fill="#0053e0" />
	<polygon points="765.625,838.9621099161748 773.4375,825.430462982043 781.25,838.9621099161748" fill="#0053e0" />
	<polygon points="781.25,838.9621099161748 789.0625,825.430462982043 796.875,838.9621099161748" fill="#0053e0" />
	<polygon points="757.8125,852.4937568503067 765.625,838.9621099161749 773.4375,852.4937568503067" fill="#0053e0" />
	<polygon points="750.0,866.0254037844385 757.8125,852.4937568503067 765.625,866.0254037844385" fill="#0053e0" />
	<polygon points="765.625,866.0254037844385 773.4375,852.4937568503067 781.25,866.0254037844385" fill="#0053e0" />
	<polygon points="789.0625,852.4937568503067 796.875,838.9621099161749 804.6875,852.4937568503067" fill="#0053e0" />
	<polygon points="781.25,866.0254037844385 789.0625,852.4937568503067 796.875,866.0254037844385" fill="#0053e0" />
	<polygon points="796.875,866.0254037844385 804.6875,852.4937568503067 812.5,866.0254037844385" fill="#0053e0" />
	<polygon points="835.9375,825.430462982043 843.75,811.8988160479112 851.5625,825.430462982043" fill="#0053e0" />
	<polygon points="828.125,838.9621099161748 835.9375,825.430462982043 843.75,838.9621099161748" fill="#0053e0" />
	<polygon points="843.75,838.9621099161748 851.5625,825.430462982043 859.375,838.9621099161748" fill="#0053e0" />
	<polygon points="820.3125,852.4937568503067 828.125,838.9621099161749 835.9375,852.4937568503067" fill="#0053e0" />
	<polygon points="812.5,866.0254037844385 820.3125,852.4937568503067 828.125,866.0254037844385" fill="#0053e0" />
	<polygon points="828.125,866.0254037844385 835.9375,852.4937568503067 843.75,866.0254037844385" fill="#0053e0" />
	<polygon points="851.5625,852.4937568503067 859.375,838.9621099161749 867.1875,852.4937568503067" fill="#0053e0" />
	<polygon points="843.75,866.0254037844385 851.5625,852.4937568503067 859.375,866.0254037844385" fill="#0053e0" />
	<polygon points="859.375,866.0254037844385 867.1875,852.4937568503067 875.0,866.0254037844385" fill="#0053e0" />
	<polygon points="929.6875,771.3038752455155 937.5,757.7722283113837 945.3125,771.3038752455155" fill="#0053e0" />
	<polygon points="921.875,784.8355221796473 929.6875,771.3038752455155 937.5,784.8355221796473" fill="#0053e0" />
	<polygon points="937.5,784.8355221796473 945.3125,771.3038752455155 953.125,784.8355221796473" fill="#0053e0" />
	<polygon points="914.0625,798.3671691137793 921.875,784.8355221796475 929.6875,798.3671691137793" fill="#0053e0" />
	<polygon points="906.25,811.898816047911 914.0625,798.3671691137793 921.875,811.898816047911" fill="#0053e0" />
	<polygon points="921.875,811.898816047911 929.6875,798.3671691137793 937.5,811.898816047911" fill="#0053e0" />
	<polygon points="945.3125,798.3671691137793 953.125,784.8355221796475 960.9375,798.3671691137793" fill="#0053e0" />
	<polygon points="937.5,811.898816047911 945.3125,798.3671691137793 953.125,811.898816047911" fill="#0053e0" />
	<polygon points="953.125,811.898816047911 960.9375,798.3671691137793 968.75,811.898816047911" fill="#0053e0" />
	<polygon points="898.4375,825.430462982043 906.25,811.8988160479112 914.0625,825.430462982043" fill="#0053e0" />
	<polygon points="890.625,838.9621099161748 898.4375,825.430462982043 906.25,838.9621099161748" fill="#0053e0" />
	<polygon points="906.25,838.9621099161748 914.0625,825.430462982043 921.875,838.9621099161748" fill="#0053e0" />
	<polygon points="882.8125,852.4937568503067 890.625,838.9621099161749 898.4375,852.4937568503067" fill="#0053e0" />
	<polygon points="875.0,866.0254037844385 882.8125,852.4937568503067 890.625,866.0254037844385" fill="#0053e0" />
	<polygon points="890.625,866.0254037844385 898.4375,852.4937568503067 906.25,866.0254037844385" fill="#0053e0" />
	<polygon points="914.0625,852.4937568503067 921.875,838.9621099161749 929.6875,852.4937568503067" fill="#0053e0" />
	<polygon points="906.25,866.0254037844385 914.0625,852.4937568503067 921.875,866.0254037844385" fill="#0053e0" />
	<polygon points="921.875,866.0254037844385 929.6875,852.4937568503067 937.5,866.0254037844385" fill="#0053e0" />
	<polygon points="960.9375,825.430462982043 968.75,811.8988160479112 976.5625,825.430462982043" fill="#0053e0" />
	<polygon points="953.125,838.9621099161748 960.9375,825.430462982043 968.75,838.9621099161748" fill="#0053e0" />
	<polygon points="968.75,838.9621099161748 976.5625,825.430462982043 984.375,838.9621099161748" fill="#0053e0" />
	<polygon points="945.3125,852.4937568503067 953.125,838.9621099161749 960.9375,852.4937568503067" fill="#0053e0" />
	<polygon points="937.5,866.0254037844385 945.3125,852.4937568503067 953.125,866.0254037844385" fill="#0053e0" />
	<polygon points="953.125,866.0254037844385 960.9375,852.4937568503067 968.75,866.0254037844385" fill="#0053e0" />
	<polygon points="976.5625,852.4937568503067 984.375,838.9621099161749 992.1875,852.4937568503067" fill="#0053e0" />
	<polygon points="968.75,866.0254037844385 976.5625,852.4937568503067 984.375,866.0254037844385" fill="#0053e0" />
	<polygon points="984.375,866.0254037844385 992.1875,852.4937568503067 1000.0,866.0254037844385" fill="#0053e0" />
</svg>