<?xml version="1.0" encoding="utf-8"?>
<svg version="1.1" xmlns="http://www.w3.org/2000/svg" xmlns:xlink="http://www.w3.org/1999/xlink" viewBox="0 0 1000 1000">
<line x1="500.0" y1="500.0" x2="500.0" y2="450.0" stroke="#0053e0" />
	<line x1="500.0" y1="450.0" x2="450.0" y2="450.0" stroke="#0053e0" />
	<line x1="450.0" y1="450.0" x2="450.0" y2="400.0" stroke="#0053e0" />
	<line x1="450.0" y1="400.0" x2="400.0" y2="400.0" stroke="#0053e0" />
	<line x1="400.0" y1="400.0" x2="400.0" y2="450.0" stroke="#0053e0" />
	<line x1="400.0" y1="450.0" x2="450.0" y2="450.0" stroke="#0053e0" />
	<line x1="450.0" y1="450.0" x2="450.0" y2="500.0" stroke="#0053e0" />
	<line x1="450.0" y1="500.0" x2="500.0" y2="500.0" stroke="#0053e0" />
	<line x1="500.0" y1="500.0" x2="500.0" y2="450.0" stroke="#0053e0" />
	<line x1="500.0" y1="450.0" x2="550.0" y2="450.0" stroke="#0053e0" />
	<line x1="550.0" y1="450.0" x2="550.0" y2="500.0" stroke="#0053e0" />
	<line x1="550.0" y1="500.0" x2="600.0" y2="500.0" stroke="#0053e0" />
	<line x1="600.0" y1="500.0" x2="600.0" y2="450.0" stroke="#0053e0" />
	<line x1="600.0" y1="450.0" x2="550.0" y2="450.0" stroke="#0053e0" />
	<line x1="550.0" y1="450.0" x2="550.0" y2="400.0" stroke="#0053e0" />
	<line x1="550.0" y1="400.0" x2="600.0" y2="400.0" stroke="#0053e0" />
	<line x1="600.0" y1="400.0" x2="600.0" y2="450.0" stroke="#0053e0" />
	<line x1="600.0" y1="450.0" x2="650.0" y2="450.0" stroke="#0053e0" />
	<line x1="650.0" y1="450.0" x2="650.0" y2="500.0" stroke="#0053e0" />
	<line x1="650.0" y1="500.0" x2="600.0" y2="500.0" stroke="#0053e0" />
	<line x1="600.0" y1="500.0" x2="600.0" y2="450.0" stroke="#0053e0" />
	<line x1="600.0" y1="450.0" x2="650.0" y2="450.0" stroke="#0053e0" />
	<line x1="650.0" y1="450.0" x2="650.0" y2="400.0" stroke="#0053e0" />
	<line x1="650.0" y1="400.0" x2="600.0" y2="400.0" stroke="#0053e0" />
	<line x1="600.0" y1="400.0" x2="600.0" y2="350.0" stroke="#0053e0" />
	<line x1="600.0" y1="350.0" x2="550.0" y2="350.0" stroke="#0053e0" />
	<line x1="550.0" y1="350.0" x2="550.0" y2="300.0" stroke="#0053e0" />
	<line x1="550.0" y1="300.0" x2="600.0" y2="300.0" stroke="#0053e0" />
	<line x1="600.0" y1="300.0" x2="600.0" y2="250.0" stroke="#0053e0" />
	<line x1="600.0" y1="250.0" x2="650.0" y2="250.0" stroke="#0053e0" />
	<line x1="650.0" y1="250.0" x2="650.0" y2="200.0" stroke="#0053e0" />
	<line x1="650.0" y1="200.0" x2="700.0" y2="200.0" stroke="#0053e0" />
	<line x1="700.0" y1="200.0" x2="700.0" y2="150.0" stroke="#0053e0" />
	<line x1="700.0" y1="150.0" x2="650.0" y2="150.0" stroke="#0053e0" />
	<line x1="650.0" y1="150.0" x2="650.0" y2="100.0" stroke="#0053e0" />
	<line x1="650.0" y1="100.0" x2="600.0" y2="100.0" stroke="#0053e0" />
	<line x1="600.0" y1="100.0" x2="600.0" y2="150.0" stroke="#0053e0" />
	<line x1="600.0" y1="150.0" x2="650.0" y2="150.0" stroke="#0053e0" />
	<line x1="650.0" y1="150.0" x2="650.0" y2="100.0" stroke="#0053e0" />
	<line x1="650.0" y1="100.0" x2="600.0" y2="100.0" stroke="#0053e0" />
</svg>